Coordinates
nRows=10
nColumns=24

# SIMM Motion File Header:
name Coordinates
datacolumns 24
datarows 10
otherdata 1
range 0.31333000000000000000 0.32233000000000001000
endheader
time	pelvis_tx	pelvis_ty	pelvis_tz	pelvis_tilt	pelvis_list	pelvis_rotation	hip_flexion_r	hip_adduction_r	hip_rotation_r	knee_angle_r	ankle_angle_r	subtalar_angle_r	mtp_angle_r	hip_flexion_l	hip_adduction_l	hip_rotation_l	knee_angle_l	ankle_angle_l	subtalar_angle_l	mtp_angle_l	lumbar_extension	lumbar_bending	lumbar_rotation
      0.31333000000000000000	      1.50605326140399900000	      0.83800978416244332000	     -0.27345592834741728000	     -6.29339095445763430000	      3.51035786858604480000	     -4.07510510514494410000	     16.07068801377402400000	     -7.06509644050169070000	      2.31898532847898900000	    -63.72082022009102800000	     -9.96535700309545370000	     -0.00000000000000000316	      0.00000000000000045963	      8.81616114426424420000	      6.85607332539983890000	     -0.30024154791812702000	     -2.64661314689941780000	     -0.81168146856122081000	     -0.00000000000000226084	     -0.00000000000000613290	      8.10882583381281920000	     -4.38484669387869100000	      9.62093918750708530000
      0.31433000000000000000	      1.50676918359483310000	      0.83797716167280678000	     -0.27355075027885128000	     -6.30520976661514430000	      3.51560527389388120000	     -4.06974047591310930000	     16.24567450909205500000	     -7.04768167727625270000	      2.39606198261958350000	    -63.82035676988496700000	     -9.75443112567515950000	     -0.00000000000000000262	      0.00000000000000047130	      8.76252592671902700000	      6.86942451446104400000	     -0.30426577510976716000	     -2.62211052219984440000	     -0.78653660186114394000	     -0.00000000000000238801	     -0.00000000000000631560	      8.11457822955832770000	     -4.38483750105287840000	      9.59487499496504450000
      0.31533000000000000000	      1.50748447988739360000	      0.83794590650557232000	     -0.27364786981580902000	     -6.31640059026969160000	      3.52192235912585700000	     -4.06303420247584320000	     16.41928988947647700000	     -7.03186124510131720000	      2.47200518234022360000	    -63.91582663287407200000	     -9.55262075669338270000	     -0.00000000000000000120	      0.00000000000000048144	      8.70883883430877330000	      6.88445203277628610000	     -0.30762904949456388000	     -2.59803238982810970000	     -0.77085743811020324000	     -0.00000000000000251227	     -0.00000000000000650470	      8.11952240414496810000	     -4.38626564155715660000	      9.56763367562933450000
      0.31633000000000000000	      1.50819892805300880000	      0.83791650327008704000	     -0.27374809940879846000	     -6.32674062465503620000	      3.52968583541831030000	     -4.05451187911049620000	     16.59104772359307500000	     -7.01819691842927270000	      2.54641423827038380000	    -64.00578683288054500000	     -9.36315435950144700000	      0.00000000000000000140	      0.00000000000000048952	      8.65508122942675050000	      6.90174721439676200000	     -0.31009625073855185000	     -2.57453073909917410000	     -0.76796783407723546000	     -0.00000000000000263250	     -0.00000000000000670271	      8.12337146230949260000	     -4.38963752426929870000	      9.53879884287323600000
      0.31733000000000000000	      1.50891337621862400000	      0.83788710003460165000	     -0.27384832900178796000	     -6.33708065904037990000	      3.53744931171076300000	     -4.04598955574514910000	     16.76280555770966900000	     -7.00453259175722920000	      2.62082329420054450000	    -64.09574703288701900000	     -9.17368796230950960000	      0.00000000000000000399	      0.00000000000000049760	      8.60132362454472780000	      6.91904239601723690000	     -0.31256345198253982000	     -2.55102908837023850000	     -0.76507823004426767000	     -0.00000000000000275273	     -0.00000000000000690071	      8.12722052047401710000	     -4.39300940698144160000	      9.50996401011713570000
      0.31833000000000000000	      1.50962616378049460000	      0.83786091397900841000	     -0.27395329021410841000	     -6.34583269807358800000	      3.54663950805597850000	     -4.03465367680999960000	     16.93099786827672300000	     -6.99311249729869560000	      2.69285717595866860000	    -64.17536485309406700000	     -9.00250690321466070000	     -0.00000000000000000059	      0.00000000000000053546	      8.54739685610347170000	      6.93904264512849260000	     -0.31309828509418769000	     -2.52939051547721410000	     -0.77113441634845903000	     -0.00000000000000288578	     -0.00000000000000715318	      8.12894505308294240000	     -4.39843066882997210000	      9.47856507891527400000
      0.31933000000000000000	      1.51033881150186060000	      0.83783499884419432000	     -0.27405864987912310000	     -6.35445101100117160000	      3.55594984941056950000	     -4.02308086655839680000	     17.09888992382215300000	     -6.98188139107216270000	      2.76469104277860240000	    -64.25411173487451300000	     -8.83286566415167940000	     -0.00000000000000000577	      0.00000000000000057582	      8.49345584229055280000	      6.95927068970558690000	     -0.31347039224784007000	     -2.50790883356194660000	     -0.77794393338620904000	     -0.00000000000000301990	     -0.00000000000000741022	      8.13049067803419410000	     -4.40402451020808790000	      9.44695022334113510000
      0.32033000000000000000	      1.51105070015910140000	      0.83781026603275799000	     -0.27416538903624710000	     -6.36241642527063080000	      3.56517973443424420000	     -4.01064435696765910000	     17.26521715716987500000	     -6.97060994557954490000	      2.83579049327129650000	    -64.32842693213376600000	     -8.66736514573839050000	     -0.00000000000000000815	      0.00000000000000060622	      8.43945994401730280000	      6.97981876992829520000	     -0.31293905169557962000	     -2.48769162879230790000	     -0.78014442368431436000	     -0.00000000000000315288	     -0.00000000000000767708	      8.13111924269088600000	     -4.40963348646804750000	      9.41448865107164680000
      0.32133000000000000000	      1.51176155055580350000	      0.83778715042290708000	     -0.27427401508562782000	     -6.36948879389370240000	      3.57429956994999860000	     -3.99702646505211060000	     17.42940400068275900000	     -6.95928332336767940000	      2.90588539689363850000	    -64.39668039757825100000	     -8.50752837391592640000	     -0.00000000000000000669	      0.00000000000000062299	      8.38538897386614050000	      7.00080460023127490000	     -0.31117196034116640000	     -2.46920399689865060000	     -0.77604061053089346000	     -0.00000000000000328429	     -0.00000000000000795733	      8.13049343702020980000	     -4.41526316447118110000	      9.38086892562004770000
      0.32233000000000001000	      1.51247240095250590000	      0.83776403481305628000	     -0.27438264113500854000	     -6.37656116251677480000	      3.58341940546575310000	     -3.98340857313656200000	     17.59359084419564200000	     -6.94795670115581390000	      2.97598030051598080000	    -64.46493386302273600000	     -8.34769160209346060000	     -0.00000000000000000523	      0.00000000000000063977	      8.33131800371497810000	      7.02179043053425470000	     -0.30940486898675318000	     -2.45071636500499280000	     -0.77193679737747267000	     -0.00000000000000341569	     -0.00000000000000823759	      8.12986763134953350000	     -4.42089284247431550000	      9.34724920016844860000
